<svg height="512" viewBox="0 0 64 64" width="512" xmlns="http://www.w3.org/2000/svg"><g id="Flat"><g id="Color_copy" data-name="Color copy"><path d="m7 9h50a4 4 0 0 1 4 4v32a4 4 0 0 1 -4 4h-49a5 5 0 0 1 -5-5v-31a4 4 0 0 1 4-4z" fill="#e9f1f2"/><path d="m61 37v8a4 4 0 0 1 -4 4h-49a5 5 0 0 1 -5-5v-31a4 4 0 0 1 4-4h15v8a19.994 19.994 0 0 0 20 20z" fill="#d0d8da"/><path d="m11 57h42a2 2 0 0 1 2 2v2a0 0 0 0 1 0 0h-46a0 0 0 0 1 0 0v-2a2 2 0 0 1 2-2z" fill="#e9f1f2"/><path d="m55 59v2h-46v-2a2.006 2.006 0 0 1 2-2h1.18a2.968 2.968 0 0 0 2.82 2z" fill="#d0d8da"/><path d="m42 49h-20a10.823 10.823 0 0 1 -6.347 6.939l-2.653 1.061h38l-2.653-1.061a10.823 10.823 0 0 1 -6.347-6.939z" fill="#d0d8da"/><path d="m42 49h-20a10.823 10.823 0 0 1 -6.347 6.939l-2.653 1.061z" fill="#93999a"/><path d="m28 7h6a0 0 0 0 1 0 0v3a3 3 0 0 1 -3 3 3 3 0 0 1 -3-3v-3a0 0 0 0 1 0 0z" fill="#ffea00"/><path d="m32 3h2a0 0 0 0 1 0 0v4a0 0 0 0 1 0 0h-6a0 0 0 0 1 0 0 4 4 0 0 1 4-4z" fill="#93999a"/><path d="m44.757 16.32-4.757.68-5-4h-8l-6 1-2.374 6.33a1.719 1.719 0 0 0 3.083 1.488l2.291-3.818h3v5h8v-4.4l4 2.4 6.279-.785a1.965 1.965 0 1 0 -.522-3.895z" fill="#ade8f4"/><path d="m46.89 17.62-5.11 1.02a4.7 4.7 0 0 1 -3.34-.57l-2.32-1.4a4.694 4.694 0 0 0 -2.42-.67 4.668 4.668 0 0 1 -3.843-2.016c.049 0 .094.016.143.016a2.978 2.978 0 0 0 2.221-1h-5.221l-6 1-2.37 6.33a1.718 1.718 0 0 0 3.08 1.49l2.29-3.82h3v5h8v-4.4l4 2.4 6.28-.78a1.967 1.967 0 0 0 1.61-2.6z" fill="#48cae4"/><path d="m35 23h-8l-1 6-5.172 1-.828 4 10-1 3-6 4 2 1 6 4 1-1-9z" fill="#48cae4"/><path d="m34.942 25.464a2.631 2.631 0 0 0 1.384 1.384l.844.362a3.813 3.813 0 0 1 2.22 2.74 3.793 3.793 0 0 0 2.24 2.75l.37 3.3-4-1-1-6-4-2-3 6-10 1 .83-4 5.17-1 1-6h8l-.2.8a2.63 2.63 0 0 0 .138 1.665z" fill="#00b4d8"/><path d="m38 35h3a4 4 0 0 1 4 4 0 0 0 0 1 0 0h-7a0 0 0 0 1 0 0v-4a0 0 0 0 1 0 0z" fill="#ffea00"/><path d="m22.36 20.74-.65 1.08a1.719 1.719 0 0 1 -3.19-.88 1.641 1.641 0 0 1 .11-.61l2.37-6.33 1-.17v3.17a19.2 19.2 0 0 0 .36 3.74z" fill="#00b4d8"/><path d="m30 33-10 1 .83-4 5.17-1a19.949 19.949 0 0 0 4 4z" fill="#0096c7"/><path d="m45 39h-7v-2.4a20.248 20.248 0 0 0 4 .4h2.46a3.989 3.989 0 0 1 .54 2z" fill="#ffd000"/><path d="m15.5 31.5h3a4 4 0 0 1 4 4 0 0 0 0 1 0 0h-7a0 0 0 0 1 0 0v-4a0 0 0 0 1 0 0z" fill="#ffb700" transform="matrix(0 1 -1 0 52.5 14.5)"/><path d="m30 9a3 3 0 0 0 3 3 .974.974 0 0 0 .24-.02 2.929 2.929 0 0 1 -2.24 1.02 3 3 0 0 1 -3-3v-3h6v1h-3a1 1 0 0 0 -1 1z" fill="#ffd000"/><path d="m34 6v1h-6a4 4 0 0 1 2.05-3.49 2.982 2.982 0 0 0 2.95 2.49z" fill="#656b76"/><path d="m53 34h4v4h-4z" fill="#ff7373"/><path d="m53 37h4v1h-4z" fill="#ef5350"/><path d="m53 30h4v4h-4z" fill="#ef5350"/><path d="m53 26h4v4h-4z" fill="#e53935"/><path d="m53 22h4v4h-4z" fill="#c62828"/><g fill="#ffea00"><path d="m11 21h-4a1 1 0 0 1 0-2h4a1 1 0 0 1 0 2z"/><path d="m11 25h-4a1 1 0 0 1 0-2h4a1 1 0 0 1 0 2z"/><path d="m11 29h-4a1 1 0 0 1 0-2h4a1 1 0 0 1 0 2z"/><path d="m10 33h-3a1 1 0 0 1 0-2h3a1 1 0 0 1 0 2z"/><path d="m9 37h-2a1 1 0 0 1 0-2h2a1 1 0 0 1 0 2z"/><path d="m53 44h-40a1 1 0 0 1 0-2h40a1 1 0 0 1 0 2z"/></g><path d="m13 42h9a0 0 0 0 1 0 0v2a0 0 0 0 1 0 0h-9a1 1 0 0 1 -1-1 1 1 0 0 1 1-1z" fill="#ffd000"/><circle cx="22" cy="43" fill="#48cae4" r="2"/><path d="m23.82 43.82a2 2 0 1 1 -2.64-2.64 1.891 1.891 0 0 0 -.18.82 2.006 2.006 0 0 0 2 2 1.891 1.891 0 0 0 .82-.18z" fill="#00b4d8"/></g></g></svg>