<?xml version="1.0" encoding="iso-8859-1"?>
<!-- Generator: Adobe Illustrator 19.0.0, SVG Export Plug-In . SVG Version: 6.00 Build 0)  -->
<svg version="1.1" id="Capa_1" xmlns="http://www.w3.org/2000/svg" xmlns:xlink="http://www.w3.org/1999/xlink" x="0px" y="0px"
	 viewBox="0 0 511.999 511.999" style="enable-background:new 0 0 511.999 511.999;" xml:space="preserve">
<path style="fill:#006DF0;" d="M377.192,332.24v43.168H134.805V332.24c0-1.82,0.087-3.62,0.269-5.392
	c2.706-26.905,25.412-47.915,53.038-47.915h135.772c27.626,0,50.332,21.011,53.038,47.915
	C377.106,328.62,377.192,330.42,377.192,332.24z"/>
<path style="fill:#0052D6;" d="M376.923,326.848l-9.533-6.991c-3.466-2.552-7.549-3.891-11.806-3.891
	c-4.969,0-9.513,1.82-13.019,4.825c-0.279-0.144-0.559-0.298-0.838-0.443l-1.82-0.924c-7.8-3.92-16.004-7.319-24.353-10.101
	c-6.102-2.041-12.298-3.749-18.566-5.144v-5.209c9.324-4.989,18.043-11.709,25.893-20.036H189.115
	c7.844,8.33,16.563,15.05,25.893,20.039v5.206c-6.266,1.395-12.461,3.104-18.556,5.144c-8.358,2.783-16.552,6.182-24.43,10.13
	l-1.801,0.924c-0.26,0.135-0.52,0.279-0.79,0.414c-3.505-3.005-8.05-4.825-13.018-4.825c-4.256,0-8.339,1.339-11.806,3.891
	l-9.533,6.991c-0.183,1.772-0.269,3.572-0.269,5.392v43.168h242.387v-43.168C377.192,330.42,377.106,328.62,376.923,326.848z"/>
<path style="fill:#385F82;" d="M264.893,6.911c-32.764,0-62.532,10.76-84.563,28.295c-31.615,3.855-56.11,30.772-56.11,63.427v26.65
	c0,25.13,19.197,45.77,43.725,48.073c22.488,24.187,57.55,39.743,96.947,39.743c67.868,0,122.885-46.157,122.885-103.095
	S332.76,6.911,264.893,6.911z"/>
<path style="fill:#4E7693;" d="M387.776,110.007c0,2.456-0.106,4.892-0.308,7.309c-4.468-53.52-57.631-95.782-122.571-95.782
	c-32.768,0-62.532,10.766-84.564,28.3c-31.613,3.852-56.11,30.765-56.11,63.427V98.634c0-32.652,24.497-59.576,56.11-63.427
	c22.032-17.535,51.796-28.3,84.564-28.3C332.763,6.907,387.776,53.069,387.776,110.007z"/>
<path style="fill:#FFB229;" d="M431.367,487.569v16.919H80.632v-16.919c0-35.744,10.699-68.994,29.061-96.716
	c16.571-25.026,39.393-45.556,66.249-59.345c0.588-0.298,1.174-0.597,1.762-0.895c7.29-3.659,14.877-6.808,22.706-9.417
	c17.476-5.845,36.167-8.994,55.589-8.994s38.113,3.149,55.589,8.994c7.828,2.609,15.416,5.759,22.706,9.417
	c0.588,0.298,1.174,0.597,1.762,0.895c16.292,8.368,31.111,19.22,43.939,32.056c8.31,8.31,15.801,17.457,22.311,27.299
	C420.669,418.576,431.367,451.826,431.367,487.569z"/>
<g>
	<path style="fill:#FF8B00;" d="M176.452,335.986v168.502h-66.759V390.854c16.571-25.026,39.393-45.556,66.249-59.345
		C176.279,332.943,176.452,334.446,176.452,335.986z"/>
	<path style="fill:#FF8B00;" d="M402.306,390.863v113.625h-66.759V335.986c0-1.541,0.173-3.043,0.511-4.477
		c16.292,8.368,31.111,19.22,43.938,32.056C388.304,371.875,395.796,381.022,402.306,390.863z"/>
</g>
<path style="fill:#FEDFC5;" d="M311.584,321.195c-0.738,30.069-25.333,54.214-55.585,54.214s-54.846-24.144-55.585-54.214
	c17.47-5.84,36.158-8.995,55.585-8.995S294.114,315.355,311.584,321.195z"/>
<path style="fill:#EDB48A;" d="M311.588,321.197c-0.742,30.062-25.335,54.212-55.59,54.212s-54.848-24.15-55.589-54.212
	c3.929-1.31,7.934-2.494,11.988-3.524c0.279,4.554,0.857,8.743,1.762,12.47c1.887,7.723,5.912,14.79,11.729,20.481
	c8.088,7.915,18.787,12.267,30.11,12.267c11.324,0,22.022-4.352,30.11-12.267c5.816-5.691,9.842-12.759,11.729-20.481
	c1.001-3.553,1.599-7.751,1.849-12.451C303.712,318.722,307.679,319.898,311.588,321.197z"/>
<rect x="227.416" y="260.114" style="fill:#FEDFC5;" width="57.157" height="66.076"/>
<path style="fill:#EDB48A;" d="M284.579,260.119v44.352c-9.158,3.236-18.758,4.911-28.579,4.911c-9.822,0-19.422-1.676-28.579-4.911
	v-44.352H284.579z"/>
<path style="fill:#FEDFC5;" d="M390.231,182.969c0,12.98-10.524,23.505-23.505,23.505c-3.418,0-6.654-0.732-9.581-2.041
	c-8.204-3.668-13.914-11.902-13.914-21.463c0-10.13,6.414-18.767,15.397-22.07c2.523-0.924,5.248-1.435,8.098-1.435
	C379.706,159.465,390.231,169.989,390.231,182.969z"/>
<path style="fill:#EDB48A;" d="M358.628,160.899v21.897c0,7.328-0.501,14.559-1.483,21.637
	c-8.204-3.668-13.914-11.902-13.914-21.463C343.231,172.839,349.643,164.202,358.628,160.899z"/>
<path style="fill:#FEDFC5;" d="M168.768,182.969c0,9.562-5.71,17.795-13.914,21.463c-2.927,1.31-6.163,2.041-9.581,2.041
	c-12.98,0-23.505-10.524-23.505-23.505c0-12.98,10.524-23.505,23.505-23.505c2.85,0,5.576,0.511,8.098,1.435
	C162.355,164.202,168.768,172.839,168.768,182.969z"/>
<path style="fill:#EDB48A;" d="M168.768,182.969c0,9.562-5.71,17.795-13.914,21.463c-0.982-7.077-1.483-14.309-1.483-21.637v-21.897
	C162.355,164.202,168.768,172.839,168.768,182.969z"/>
<path style="fill:#FEDFC5;" d="M346.11,102.467v80.327c0,62.995-40.346,114.068-90.111,114.068s-90.111-51.074-90.111-114.068
	v-80.327C165.889,102.467,346.11,102.467,346.11,102.467z"/>
<path style="fill:#EDB48A;" d="M346.11,102.467v29.253c-21.386,9.446-42.946,14.213-64.371,14.213
	c-17.073,0-32.2-3.014-45.046-7.251c-12.836-4.237-23.389-9.687-31.276-14.569c-7.154,15.57-21.926,26.943-39.528,29.311v-50.958
	C165.889,102.467,346.11,102.467,346.11,102.467z"/>
<path style="fill:#385F82;" d="M349.353,73.628H185.867c-21.184,0-38.356,17.172-38.356,38.356v29.399h11.505
	c21.276,0,38.523-17.247,38.523-38.523l0,0c0,0,69.28,65.271,166.949,5.02L349.353,73.628z"/>
<polygon style="fill:#FFEB99;" points="283.471,444.377 256.285,400.897 228.495,444.322 202.361,411.449 201.79,478.561 
	309.637,478.561 310.209,411.449 "/>
<g>
	<path style="fill:#159BFF;" d="M163.932,504.49h-41.721V368.328c0-10.375,4.94-20.13,13.303-26.27l16.498-12.113
		c4.946-3.631,11.92-0.099,11.92,6.036L163.932,504.49L163.932,504.49z"/>
	<path style="fill:#159BFF;" d="M348.066,504.49h41.721V368.328c0-10.375-4.94-20.13-13.303-26.27l-16.498-12.113
		c-4.946-3.631-11.92-0.099-11.92,6.036V504.49z"/>
</g>
<path d="M277.442,14.985c22.311,2.002,43.301,9.337,60.701,21.21c1.296,0.883,2.768,1.307,4.226,1.307
	c2.399,0,4.756-1.147,6.209-3.277c2.338-3.425,1.455-8.097-1.97-10.434c-19.513-13.314-42.965-21.53-67.823-23.762
	c-4.145-0.358-7.78,2.677-8.151,6.808C270.265,10.966,273.313,14.615,277.442,14.985z"/>
<path d="M397.297,371.48v-3.151c0-11.063-4.636-21.645-12.592-29.165v-6.919c0-33.535-27.283-60.819-60.819-60.819h-1.142
	c13.943-16.299,24.054-37.625,28.442-61.634c4.655,2.698,9.995,4.188,15.544,4.188c17.1,0,31.012-13.912,31.012-31.012
	c0-11.073-5.838-20.802-14.592-26.29c7.957-14.533,12.137-30.521,12.137-46.672c0-21.976-7.57-43.204-21.891-61.39
	c-2.567-3.259-7.29-3.82-10.544-1.253c-3.259,2.566-3.819,7.287-1.254,10.544c12.215,15.512,18.672,33.527,18.672,52.099
	c0,14.562-4.055,29.01-11.743,42.006c-0.595-0.034-1.193-0.056-1.796-0.056c-4.606,0-9.069,1.024-13.115,2.913v-32.267
	c4.863-2.473,9.803-5.239,14.815-8.331c3.193-1.97,4.443-5.994,2.926-9.426l-15.135-34.253c-1.678-3.794-6.112-5.508-9.904-3.833
	c-3.793,1.676-5.509,6.11-3.834,9.904l12.448,28.17c-36.472,20.926-72.689,26.354-107.747,16.128
	c-27.566-8.039-44.207-23.298-44.505-23.575c-4.693-4.399-12.649-0.964-12.649,5.474c0,17.101-13.912,31.014-31.014,31.014h-3.997
	v-21.891c0-4.147-3.361-7.509-7.509-7.509c-4.148,0-7.509,3.362-7.509,7.509v29.399c0,4.147,3.361,7.509,7.509,7.509h10.872v5.963
	c-4.042-1.885-8.495-2.898-13.114-2.898c-1.158,0-2.3,0.069-3.426,0.193c-6.536-7.437-10.114-16.872-10.114-26.864V98.634
	c0-28.469,21.285-52.533,49.509-55.975c1.379-0.168,2.682-0.714,3.768-1.579c16.645-13.25,37.38-21.977,59.963-25.239
	c4.105-0.593,6.951-4.401,6.358-8.505c-0.593-4.105-4.405-6.953-8.505-6.358c-24.482,3.536-47.089,12.882-65.523,27.065
	c-34.689,5.282-60.588,35.257-60.588,70.591v26.65c0,11.839,3.673,23.105,10.46,32.522c-7.814,5.637-12.916,14.811-12.916,25.16
	c0,17.1,13.912,31.012,31.012,31.012c5.59,0,10.915-1.475,15.548-4.159c4.39,23.997,14.499,45.313,28.437,61.605h-1.141
	c-33.536,0-60.819,27.283-60.819,60.819v6.919c-7.955,7.52-12.592,18.102-12.592,29.165v3.151
	c-26.82,32.614-41.578,73.754-41.578,116.086v16.924c0,4.147,3.361,7.509,7.509,7.509s7.509-3.362,7.509-7.509v-16.924
	c0-32.241,9.324-63.73,26.559-90.618v106.874c0,4.147,3.361,7.509,7.509,7.509s7.509-3.362,7.509-7.509V368.328
	c0-7.952,3.827-15.51,10.238-20.218l16.466-12.129v44.775c0,4.147,3.361,7.509,7.509,7.509c4.148,0,7.509-3.362,7.509-7.509v-38.213
	c3.148-1.838,6.373-3.592,9.632-5.22c4.208-2.109,8.534-4.022,12.92-5.767c2.371,12.634,8.531,24.237,17.897,33.391
	c11.857,11.588,27.521,17.969,44.109,17.969c16.587,0,32.252-6.382,44.109-17.969c9.366-9.154,15.526-20.757,17.897-33.391
	c4.386,1.745,8.715,3.658,12.93,5.772c3.257,1.627,6.482,3.389,9.622,5.223v161.271c0,4.147,3.361,7.509,7.509,7.509
	c4.148,0,7.509-3.362,7.509-7.509l-0.032-167.824l16.498,12.112c6.41,4.708,10.238,12.264,10.238,20.218v135.494
	c0,4.147,3.361,7.509,7.509,7.509s7.509-3.362,7.509-7.509V396.958c17.23,26.885,26.559,58.386,26.559,90.608v16.924
	c0,4.147,3.361,7.509,7.509,7.509c4.148,0,7.509-3.362,7.509-7.509v-16.924C438.874,445.256,424.111,404.081,397.297,371.48z
	 M366.73,166.973c8.819,0,15.995,7.175,15.995,15.994c0,8.819-7.175,15.995-15.995,15.995c-5.322,0-10.283-2.638-13.268-7.057
	c-0.036-0.053-0.076-0.099-0.113-0.15c0.174-2.959,0.265-17.935,0.265-17.935C356.614,169.53,361.494,166.973,366.73,166.973z
	 M145.269,198.962c-8.819,0-15.995-7.175-15.995-15.995c0-8.819,7.175-15.994,15.995-15.994c4.95,0,9.543,2.239,12.601,6.142
	c0.162,0.207,0.334,0.403,0.514,0.59c0,0,0.091,15.07,0.264,18.019C155.673,196.262,150.711,198.962,145.269,198.962z
	 M173.401,146.577c14.062-4.638,25.153-15.874,29.571-30.033c8.501,5.808,21.877,13.441,39.275,18.618
	c10.857,3.231,24.125,5.699,39.329,5.699c16.852,0,36.081-3.037,57.021-11.431v53.365c0,58.759-37.053,106.562-82.598,106.562
	c-45.545,0-82.599-47.804-82.599-106.562L173.401,146.577L173.401,146.577z M174.352,323.894c-1.979,0.989-3.95,2.024-5.904,3.092
	c-1.356-1.805-3.123-3.317-5.228-4.383c-5.074-2.57-11.071-2.074-15.651,1.291l-5.021,3.686
	c2.345-23.072,21.885-41.136,45.565-41.136h16.916c4.713,3.608,9.688,6.733,14.882,9.316v12.5
	c-7.399,1.483-14.732,3.426-21.853,5.806c-0.036,0.012-0.072,0.024-0.108,0.037C189.897,316.788,181.955,320.083,174.352,323.894z
	 M289.611,354.207c-9.034,8.829-20.971,13.692-33.611,13.692s-24.578-4.863-33.611-13.692c-7.679-7.505-12.532-17.17-13.999-27.648
	c3.799-1.121,7.649-2.107,11.523-2.957v2.595c0,4.147,3.361,7.509,7.509,7.509c4.148,0,7.509-3.362,7.509-7.509v-24.684
	c6.788,1.867,13.837,2.86,21.07,2.86c7.232,0,14.282-0.993,21.07-2.86v24.684c0,4.147,3.361,7.509,7.509,7.509
	c4.148,0,7.509-3.362,7.509-7.509v-2.593c3.875,0.85,7.723,1.835,11.524,2.956C302.142,337.038,297.29,346.702,289.611,354.207z
	 M348.779,322.603c-2.104,1.065-3.871,2.576-5.225,4.379c-1.951-1.065-3.922-2.097-5.898-3.084
	c-7.617-3.818-15.566-7.115-23.616-9.799c-0.031-0.011-0.063-0.022-0.094-0.032c-7.126-2.381-14.459-4.323-21.859-5.806v-12.502
	c5.195-2.583,10.17-5.708,14.882-9.316h16.916c23.681,0,43.221,18.064,45.565,41.136l-5.021-3.686
	C359.847,320.528,353.85,320.033,348.779,322.603z"/>
<path d="M255.999,260.094c13.19,0,24.599-11.185,27.127-26.596c0.671-4.092-2.102-7.954-6.195-8.625
	c-4.097-0.674-7.953,2.102-8.625,6.195c-1.331,8.118-6.507,14.009-12.306,14.009c-5.8,0-10.976-5.892-12.306-14.009
	c-0.672-4.092-4.53-6.863-8.625-6.195c-4.093,0.671-6.865,4.533-6.195,8.625C231.4,248.908,242.809,260.094,255.999,260.094z"/>
<path d="M215.008,200.449c4.148,0,7.509-3.362,7.509-7.509v-12.491c0-4.147-3.361-7.509-7.509-7.509
	c-4.148,0-7.509,3.362-7.509,7.509v12.491C207.499,197.087,210.86,200.449,215.008,200.449z"/>
<path d="M296.99,200.449c4.148,0,7.509-3.362,7.509-7.509v-12.491c0-4.147-3.361-7.509-7.509-7.509
	c-4.148,0-7.509,3.362-7.509,7.509v12.491C289.482,197.087,292.844,200.449,296.99,200.449z"/>
<path d="M227.271,71.969c-3.06-2.789-7.802-2.578-10.6,0.481c-2.799,3.061-2.587,7.809,0.474,10.608
	c1.168,1.069,29.117,26.234,71.846,30.807c0.271,0.029,0.541,0.043,0.808,0.043c3.788,0,7.045-2.858,7.457-6.71
	c0.441-4.124-2.543-7.824-6.667-8.266C253.052,94.915,227.684,72.342,227.271,71.969z"/>
<path d="M312.75,404.383c-3.002-1.079-6.36-0.144-8.37,2.333l-20.114,24.77l-21.614-34.571c-1.365-2.183-3.752-3.514-6.327-3.528
	c-2.618-0.013-4.977,1.293-6.363,3.462l-22.126,34.576l-19.595-24.649c-1.98-2.49-5.316-3.462-8.323-2.427
	c-3.009,1.035-5.037,3.855-5.065,7.035l-0.572,67.112c-0.017,2.002,0.767,3.929,2.177,5.351c1.41,1.423,3.33,2.222,5.332,2.222
	h107.848c4.122,0,7.474-3.323,7.509-7.445l0.571-67.112C317.744,408.322,315.752,405.463,312.75,404.383z M302.192,471.052h-92.83
	l0.326-38.32l12.928,16.263c1.509,1.897,3.854,2.942,6.262,2.826c2.422-0.124,4.633-1.41,5.941-3.452l21.391-33.427l20.892,33.415
	c1.285,2.055,3.484,3.364,5.904,3.514c2.411,0.142,4.763-0.879,6.291-2.761l13.219-16.278L302.192,471.052z"/>
<path d="M163.932,407.465c-4.148,0-7.509,3.362-7.509,7.509v88.849c0,4.147,3.361,7.509,7.509,7.509
	c4.148,0,7.509-3.362,7.509-7.509v-88.849C171.441,410.827,168.08,407.465,163.932,407.465z"/>
<g>
</g>
<g>
</g>
<g>
</g>
<g>
</g>
<g>
</g>
<g>
</g>
<g>
</g>
<g>
</g>
<g>
</g>
<g>
</g>
<g>
</g>
<g>
</g>
<g>
</g>
<g>
</g>
<g>
</g>
</svg>
