<svg height="461pt" viewBox="0 0 461.80799 461" width="461pt" xmlns="http://www.w3.org/2000/svg"><path d="m141.808594 139.226562v-28.320312c-41.265625 11.1875-81.019532 27.332031-118.402344 48.082031l-6.957031 3.839844c-12.824219 7.128906-19.15625 22.066406-15.359375 36.238281l23.277344 87.042969c20.285156 75.621094 76.183593 136.59375 149.761718 163.359375l24 8.800781c12.503906 4.503907 26.097656 5.023438 38.910156 1.488281l-47.390624-176.882812c-31.035157-41.464844-47.816407-91.855469-47.839844-143.648438zm0 0" fill="#bddbff"/><path d="m173.726562 16.1875-7.679687 1.921875c-14.226563 3.582031-24.210937 16.363281-24.238281 31.039063v90.078124c.019531 78.324219 38.238281 151.71875 102.398437 196.640626l12.160157 8.480468 8.722656 6.160156c10.761718 7.535157 23.582031 11.578126 36.71875 11.578126v-361.683594c-43.179688.003906-86.195313 5.304687-128.082032 15.785156zm0 0" fill="#ed1c24"/><path d="m437.566406 18.109375-7.679687-1.921875c-41.886719-10.480469-84.898438-15.78125-128.078125-15.785156v361.683594c13.136718 0 25.957031-4.042969 36.71875-11.578126l20.878906-14.640624c64.160156-44.921876 102.382812-118.316407 102.402344-196.640626v-90.078124c-.027344-14.675782-10.011719-27.457032-24.242188-31.039063zm0 0" fill="#cf1820"/><g fill="#f1f2f2"><path d="m322.070312 279.613281 67.738282-55.425781-59.375 10.792969c-18.929688 3.449219-38.324219 3.449219-57.25 0l-59.375-10.792969 67.734375 55.425781c11.789062 9.644531 28.742187 9.644531 40.527343 0zm0 0"/><path d="m235.40625 329.300781-1.429688-1.03125-3.199218 1.519531c-17.382813 8.246094-36.109375 13.285157-55.28125 14.878907l-60.160156 4.878906 79.761718 36c13.890625 6.320313 30.3125 1.929687 39.199219-10.480469l22.0625-30.695312-12.152344-8.527344c-3.03125-2.054688-5.917969-4.320312-8.800781-6.542969zm0 0"/><path d="m272.152344 141.84375 10.910156-11.710938c-25.011719-24.953124-65.5-24.953124-90.511719 0l-.398437.398438 11.710937 10.914062c9.070313-9.074218 21.398438-14.140624 34.226563-14.066406 12.832031.078125 25.097656 5.285156 34.0625 14.464844zm0 0"/><path d="m320.550781 130.132812-.398437.398438 11.710937 10.914062c9.070313-9.074218 21.398438-14.140624 34.226563-14.066406 12.832031.078125 25.097656 5.285156 34.0625 14.464844l10.910156-11.710938c-25.011719-24.953124-65.5-24.953124-90.511719 0zm0 0"/></g><path d="m106.046875 257.789062c12.507813-3.355468 25.839844-1.515624 36.96875 5.101563l7.457031-14.167969c-30.609375-17.671875-69.75-7.1875-87.425781 23.417969l-.277344.488281 6.917969 4 7.199219 3.503906c6.34375-11.046874 16.84375-19.09375 29.160156-22.34375zm0 0" fill="#2488ff"/><path d="m322.710938 358.429688c-19.359376 6.746093-40.78125 3.796874-57.597657-7.929688l-20.90625-14.65625c-20.878906-14.640625-39.285156-32.523438-54.527343-52.96875l47.328124 176.882812c12.535157-3.414062 23.730469-10.574218 32.082032-20.53125l16.398437-19.597656c15.472657-18.351562 28.046875-38.964844 37.28125-61.121094zm0 0" fill="#9bc9ff"/><path d="m322.070312 279.613281 67.738282-55.425781-59.375 10.792969c-18.929688 3.449219-38.324219 3.449219-57.25 0l-59.375-10.792969 67.734375 55.425781c11.789062 9.644531 28.742187 9.644531 40.527343 0zm0 0" fill="#f1f2f2"/><path d="m235.40625 329.300781-1.429688-1.03125-3.199218 1.519531c-17.382813 8.246094-36.109375 13.285157-55.28125 14.878907l-60.160156 4.878906 79.761718 36c13.890625 6.320313 30.3125 1.929687 39.199219-10.480469l22.0625-30.695312-12.152344-8.527344c-3.03125-2.054688-5.917969-4.320312-8.800781-6.542969zm0 0" fill="#006df0"/></svg>