<?xml version="1.0" encoding="iso-8859-1"?>
<!-- Generator: Adobe Illustrator 21.0.0, SVG Export Plug-In . SVG Version: 6.00 Build 0)  -->
<svg xmlns="http://www.w3.org/2000/svg" xmlns:xlink="http://www.w3.org/1999/xlink" version="1.1" id="Capa_1" x="0px" y="0px" viewBox="0 0 512.005 512.005" style="enable-background:new 0 0 512.005 512.005;" xml:space="preserve" width="512" height="512">
<path style="fill-rule:evenodd;clip-rule:evenodd;fill:#9DC8F5;" d="M482.406,269.395v181.4c0,28.159-23.052,51.21-51.211,51.21  h-341.4c-28.158,0-51.209-23.044-51.209-51.21v-181.4H482.406z"/>
<path style="fill-rule:evenodd;clip-rule:evenodd;fill:#A6AFBE;" d="M31.426,164.98l7.16,26.121L466.623,73.795l-7.159-26.121  C452.02,20.51,423.703,4.376,396.54,11.821L67.279,102.056C40.117,109.5,23.983,137.819,31.426,164.98z"/>
<rect x="38.586" y="191.101" style="fill-rule:evenodd;clip-rule:evenodd;fill:#A6AFBE;" width="443.82" height="78.294"/>
<g>
	<path style="fill-rule:evenodd;clip-rule:evenodd;" d="M482.406,181.101H112.91l317.772-87.087c5.326-1.46,8.46-6.961,7.001-12.288   c-1.46-5.326-6.962-8.46-12.288-7.001l-16.874,4.624l-63.91-42.929l54.571-14.955c18.071-4.951,37.232,2.952,46.617,19.215   c2.761,4.781,8.876,6.421,13.66,3.662c4.783-2.762,6.423-8.877,3.662-13.66C449.19,6.546,420.729-5.177,393.896,2.176   L64.636,92.412c-0.054,0.015-0.106,0.033-0.16,0.049c-0.04,0.011-0.079,0.023-0.118,0.035c-32.379,9.037-51.47,42.67-42.577,75.128   l6.804,24.822v76.949v181.4c0,33.751,27.458,61.21,61.209,61.21h341.4c33.752,0,61.211-27.459,61.211-61.21v-181.4v-78.294   C492.406,185.578,487.929,181.101,482.406,181.101z M472.406,259.395h-97.794l50.292-58.294h47.502V259.395z M286.951,259.395   l50.291-58.294h61.248l-50.291,58.294H286.951z M199.291,259.395l50.291-58.294h61.247l-50.292,58.294H199.291z M111.629,259.395   l50.291-58.294h61.247l-50.292,58.294H111.629z M48.586,259.395v-58.294h86.92l-50.291,58.294H48.586z M150.051,89.741   l63.911,42.929l-59.07,16.189l-63.911-42.93L150.051,89.741z M234.594,66.572l63.911,42.929l-59.069,16.188l-63.911-42.93   L234.594,66.572z M383.047,86.33l-59.067,16.188L260.068,59.59l59.068-16.188L383.047,86.33z M65.764,113.083l63.654,42.756   l-83.831,22.975l-4.516-16.477C35.456,141.848,46.406,120.662,65.764,113.083z M472.406,450.795   c0,22.724-18.487,41.21-41.211,41.21h-341.4c-22.723,0-41.209-18.486-41.209-41.21v-171.4h423.82V450.795z"/>
	<path style="fill-rule:evenodd;clip-rule:evenodd;" d="M419.662,386.114H101.327c-5.523,0-10,4.478-10,10s4.477,10,10,10h107.669   v21.785c0,5.522,4.477,10,10,10c5.523,0,10-4.478,10-10v-21.785h62.997l-0.001,21.784c0,5.523,4.477,10.001,9.999,10.001   c0.001,0,0.001,0,0.001,0c5.522,0,10-4.477,10-9.999l0.001-21.786h107.669c5.522,0,10-4.478,10-10S425.185,386.114,419.662,386.114   z"/>
	<path style="fill-rule:evenodd;clip-rule:evenodd;" d="M91.327,336.669c0,5.522,4.477,10,10,10h318.335c5.522,0,10-4.478,10-10   c0-5.522-4.478-10-10-10H101.327C95.804,326.669,91.327,331.147,91.327,336.669z"/>
	<path style="fill-rule:evenodd;clip-rule:evenodd;" d="M456.623,73.795c0,5.508,4.492,10,10,10c5.508,0,10-4.492,10-10   c0-5.508-4.492-10-10-10C461.115,63.795,456.623,68.287,456.623,73.795z"/>
</g>















</svg>
