<?xml version="1.0"?>
<svg xmlns="http://www.w3.org/2000/svg" xmlns:xlink="http://www.w3.org/1999/xlink" xmlns:svgjs="http://svgjs.com/svgjs" version="1.1" width="512" height="512" x="0" y="0" viewBox="0 0 551.13 551.13" style="enable-background:new 0 0 512 512" xml:space="preserve" class=""><g><path xmlns="http://www.w3.org/2000/svg" d="m275.531 172.228-.05 120.493c0 4.575 1.816 8.948 5.046 12.177l86.198 86.181 24.354-24.354-81.153-81.136.05-113.361z" fill="#ffffff" data-original="#000000" style="" class=""/><path xmlns="http://www.w3.org/2000/svg" d="m310.011 34.445c-121.23 0-221.563 90.033-238.367 206.674h-71.644l86.114 86.114 86.114-86.114h-65.78c16.477-97.589 101.355-172.228 203.563-172.228 113.966 0 206.674 92.707 206.674 206.674s-92.707 206.674-206.674 206.674c-64.064 0-123.469-28.996-162.978-79.555l-27.146 21.192c46.084 58.968 115.379 92.808 190.124 92.808 132.955 0 241.119-108.181 241.119-241.119s-108.164-241.119-241.119-241.12z" fill="#ffffff" data-original="#000000" style="" class=""/></g></svg>
