<svg height="512" viewBox="0 0 512 512" width="512" xmlns="http://www.w3.org/2000/svg"><g id="filled_outline" data-name="filled outline"><path d="m226.758 69a72 72 0 0 0 -42.758 65.791v57.209l-28.853 28.853a120 120 0 0 0 -35.147 84.853v182.294h200l40-264-32-32v-57.209a72 72 0 0 0 -42.758-65.791 72 72 0 0 0 -58.484 0z" fill="#0296e5"/><path d="m216 144a203.962 203.962 0 0 1 80 0v32a72 72 0 0 1 -14.4 43.2 32 32 0 0 1 -25.6 12.8 32 32 0 0 1 -25.6-12.8 72 72 0 0 1 -14.4-43.2z" fill="#e6af89"/><circle cx="240" cy="176" fill="#533222" r="8"/><circle cx="272" cy="176" fill="#533222" r="8"/><path d="m216 144v-40a203.962 203.962 0 0 1 80 0v40a203.962 203.962 0 0 0 -80 0z" fill="#eaeae8"/><path d="m360 224 48-40v-56h56v96l-112 88v176h-160l80-200z" fill="#0276b4"/><path d="m432 128h-24v27.566a145.877 145.877 0 0 0 5.614 40.082 145.894 145.894 0 0 0 37.119 63.085l13.267 13.267v-144z" fill="#eaeae8"/><path d="m432 128 .414-104h32l-.414 104z" fill="#683b0d"/><path d="m424 72h40v24l-24 8a24 24 0 0 1 -24 24h-8v-40z" fill="#e6af89"/><path d="m464 224v-96h-24v24a120 120 0 0 0 24 72z" fill="#cbcbcb"/><path d="m288 224a80.5 80.5 0 0 0 16-48v-72a8 8 0 0 0 -6.431-7.845 210.876 210.876 0 0 0 -83.138 0 8 8 0 0 0 -6.431 7.845v72a80.5 80.5 0 0 0 16 48 40 40 0 0 0 64 0zm-64-113.332a194.659 194.659 0 0 1 64 0v23.8a210.459 210.459 0 0 0 -64 0zm32 113.332a24.116 24.116 0 0 1 -19.2-9.6 64.4 64.4 0 0 1 -12.8-38.4v-25.318a194.659 194.659 0 0 1 64 0v25.318a64.392 64.392 0 0 1 -12.8 38.4 24.113 24.113 0 0 1 -19.2 9.6z"/><circle cx="240" cy="176" r="8"/><circle cx="272" cy="176" r="8"/><path d="m470.1 18.367a8.007 8.007 0 0 0 -5.686-2.367h-32a8 8 0 0 0 -8 7.931l-.346 40.069h-.068a8 8 0 0 0 -5.657 2.343l-16 16a8 8 0 0 0 -2.343 5.657v67.565a153.76 153.76 0 0 0 1.781 23.205l-41.29 34.407-24.491-24.49v-53.9a80 80 0 1 0 -160 0v53.9l-26.51 26.513a127.167 127.167 0 0 0 -37.49 90.506v182.294a8 8 0 0 0 8 8h232a8 8 0 0 0 8-8v-172.111l76.876-60.4c2.617 3.067 5.342 6.047 8.2 8.905l13.267 13.266a8 8 0 0 0 13.657-5.66l.414-247.931a8 8 0 0 0 -2.314-5.702zm-26.4 101.633a31.74 31.74 0 0 0 3.746-10.049l8.554-2.851v12.9zm4.3 16h8v57.415a112.409 112.409 0 0 1 -8-41.415zm-7.654-104h16l-.277 32h-16zm-24.346 59.313 11.313-11.313h28.687v10.234l-18.53 6.176a8 8 0 0 0 -5.47 7.59 16.019 16.019 0 0 1 -16 16zm-229.416 388.687h-58.584v-174.294a111.261 111.261 0 0 1 32.805-79.2l28.852-28.853a8 8 0 0 0 2.343-5.653v-57.209a64 64 0 1 1 128 0v57.209a8 8 0 0 0 2.343 5.657l25.38 25.38-80.423 58.493a8 8 0 0 0 -2.723 3.5zm160.474-174.291a8 8 0 0 0 -3.058 6.291v168h-140.184l74.755-186.887 126.979-96.658c.127.463.239.93.371 1.392a154.214 154.214 0 0 0 21.213 44.945zm74.248-112.259a137.871 137.871 0 0 1 -5.306-37.885v-19.565h16v16a128.826 128.826 0 0 0 24 74.573v26.112a138.237 138.237 0 0 1 -34.694-59.235z"/></g></svg>