<svg height="512" viewBox="0 0 60 60" width="512" xmlns="http://www.w3.org/2000/svg"><g id="Page-1" fill="none" fill-rule="evenodd"><g id="028---Treasure-Map" fill-rule="nonzero"><path id="Shape" d="m14 21v29c0 .5522847-.4477153 1-1 1h-8c-2.13701749-.0024121-3.89849297 1.6753933-4.00000314 3.81l.00000314-30.81c-.00132908-1.0612728.41967146-2.0794609 1.17010528-2.8298947.75043381-.7504338 1.76862187-1.1714344 2.82989472-1.1701053h8c.5522847 0 1 .4477153 1 1z" fill="#ffe0b2"/><path id="Shape" d="m53.54 7.56c-2.1398892-4.72433878-7.2890004-7.31215494-12.3569833-6.2103147s-8.6778313 5.59395923-8.6630167 10.7803147c.0343631 4.1903752 1.2472609 8.2865044 3.5 11.82.0077266.0179294.017816.0347451.03.05.08.13.16.25.25.38 1.0113022 1.5571343 2.1735847 3.0108248 3.47 4.34 1.1399426 1.2131144 2.3959355 2.3116895 3.75 3.28 1.3496318-.9625621 2.6022214-2.0543916 3.74-3.26 1.2991527-1.3365948 2.4646833-2.7968573 3.48-4.36.08-.13.17-.25.24-.38.012184-.0152549.0222734-.0320706.03-.05 2.2560633-3.5325312 3.4724315-7.6286772 3.51-11.82.0029229-1.5757843-.3312173-3.1339688-.98-4.57zm-10.09 11.44c-2.8374334.0283757-5.4112926-1.6590108-6.5168497-4.2723567-1.1055572-2.6133459-.5240688-5.63557946 1.4722919-7.65210548 1.9963608-2.01652601 5.0125978-2.62835843 7.6369225-1.54912124 2.6243248 1.0792372 4.3374934 3.63600815 4.3376353 6.47358342.0103696 1.8475599-.7141867 3.6234513-2.014048 4.9364425s-3.0683812 2.0553586-4.915952 2.0635575z" fill="#f44335"/><path id="Shape" d="m53.54 7.56c-1.9520121-4.49677946-6.6658068-7.13724102-11.52-6.453 5.4594683.81474026 9.5000344 5.50307282 9.5 11.023-.0375685 4.1913228-1.2539367 8.2874688-3.51 11.82-.0077266.0179294-.017816.0347451-.03.05-.07.13-.16.25-.24.38-1.0153167 1.5631427-2.1808473 3.0234052-3.48 4.36-.7090088.7384068-1.456022 1.4393576-2.238 2.1.9.759 1.5 1.164 1.5 1.164 1.3496318-.9625621 2.6022214-2.0543916 3.74-3.26 1.2991527-1.3365948 2.4646833-2.7968573 3.48-4.36.08-.13.17-.25.24-.38.012184-.0152549.0222734-.0320706.03-.05 2.2560633-3.5325312 3.4724315-7.6286772 3.51-11.82.0028654-1.5772782-.331971-3.13689279-.982-4.574z" fill="#c81e1e"/><ellipse id="Oval" cx="43.45" cy="12" fill="#ffeb3a" rx="6.93" ry="7"/><path id="Shape" d="m43.45 5c-.5046819.00120274-1.0077025.0578764-1.5.169 3.1801565.73485199 5.4325324 3.56704496 5.4325324 6.831 0 3.263955-2.2523759 6.096148-5.4325324 6.831.4922975.1111236.9953181.1677973 1.5.169 3.8659932 0 7-3.1340068 7-7 0-3.86599325-3.1340068-7-7-7z" fill="#fdd834"/><path id="Shape" d="m50 32c0 2.21-2.91 4-6.5 4s-6.5-1.79-6.5-4c0-1.36 1.1-2.55 2.77-3.28 1.1399426 1.2131144 2.3959355 2.3116895 3.75 3.28 1.3496318-.9625621 2.6022214-2.0543916 3.74-3.26 1.66.72 2.74 1.91 2.74 3.26z" fill="#a0522d"/><path id="Shape" d="m47.26 28.74c-.426.442-.83.831-1.212 1.186.5817868.5363013.924631 1.2832119.952 2.074 0 1.892-2.135 3.472-5 3.889.4966763.073058.99798.1101544 1.5.111 3.59 0 6.5-1.79 6.5-4 0-1.35-1.08-2.54-2.74-3.26z" fill="#783e22"/><path id="Shape" d="m59 25v33c0 .5522847-.4477153 1-1 1h-6l-4-5-4 5h-38.77c-2.2604.0317581-4.13546643-1.7413544-4.23-4v-.19c.10150703-2.1346067 1.86298251-3.8124121 4-3.81h8c.5522847 0 1-.4477153 1-1v-26h13l3 4 3-4h3.05c.08.13.16.25.25.38 1.0113022 1.5571343 2.1735847 3.0108248 3.47 4.34-1.67.73-2.77 1.92-2.77 3.28 0 2.21 2.91 4 6.5 4s6.5-1.79 6.5-4c0-1.35-1.08-2.54-2.74-3.26 1.2991527-1.3365948 2.4646833-2.7968573 3.48-4.36.08-.13.17-.25.24-.38h7.02c.5522847 0 1 .4477153 1 1z" fill="#dfc49c"/><path id="Shape" d="m25.332 28.445c-.1471733-.2206869-.3759984-.3738581-.6361213-.4258077-.2601229-.0519495-.5302285.0015795-.7508787.1488077l-1.7 1.13-1.7-1.13c-.4595009-.306518-1.0804819-.1825009-1.387.277-.306518.4595009-.1825009 1.080482.277 1.387l1 .668-1 .668c-.4595009.306518-.583518.9274991-.277 1.387s.9274991.583518 1.387.277l1.7-1.13 1.7 1.13c.297245.1982824.6776931.2229246.9980331.0646441.3203401-.1582805.5319049-.4754371.555-.832s-.1457881-.6983617-.4430331-.8966441l-1-.668 1-.668c.2206869-.1471733.3738581-.3759984.4258077-.6361213.0519495-.2601229-.0015795-.5302285-.1488077-.7508787z" fill="#f44335"/><path id="Shape" d="m38.813 47.419c-.320797-.4489702-.9446332-.5532412-1.394-.233l-2.919 2.085-2.919-2.085c-.4495598-.3208774-1.0741226-.2165598-1.395.233s-.2165598 1.0741226.233 1.395l2.36 1.686-2.36 1.686c-.4495598.3208774-.5538774.9454402-.233 1.395s.9454402.5538774 1.395.233l2.919-2.085 2.919 2.085c.4495598.3208774 1.0741226.2165598 1.395-.233s.2165598-1.0741226-.233-1.395l-2.36-1.686 2.36-1.686c.4492645-.3211655.5531316-.9457113.232-1.395z" fill="#f44335"/><g fill="#91562d"><path id="Shape" d="m59 42c-.4222444.0043261-.8434145-.0433662-1.254-.142-.3298437-.0821045-.6482623-.2047024-.948-.365-.2886955-.1574197-.5630737-.3397808-.82-.545-.2806224-.2251534-.660563-.2822048-.9949362-.1493982-.3343731.1328065-.5716299.4349968-.6212954.7913341-.0496655.3563374.0959171.711887.3812316.9310641.3486003.2776332.7210483.5239241 1.113.736.4450234.2383947.9179937.4204613 1.408.542.5682585.1378022 1.1512876.2053073 1.736.201.5522847 0 1-.4477153 1-1s-.4477153-1-1-1z"/><path id="Shape" d="m53.141 38.743c-.445182-.238574-.9185483-.4203279-1.409-.541-.5667934-.1385042-1.1485454-.2063529-1.732-.202-.5522847 0-1 .4477153-1 1s.4477153 1 1 1c.4219181-.0043965.8427659.0432974 1.253.142.330132.0822019.6488698.2047934.949.365.3157247.1748735.7011832.1660482 1.0085735-.0230921.3073904-.1891402.4890103-.5292437.4752185-.8898995-.0137917-.3606559-.2208548-.6858958-.541792-.8510084z"/><path id="Shape" d="m45.739 39.479c-.315.247-.612.51-.908.773-.267.237-.532.474-.814.7-.2570173.2052877-.5317639.3873366-.821.544-.4876674.2595738-.6725738.8653326-.413 1.353s.8653326.6725738 1.353.413c.3926159-.2124007.7657289-.4590233 1.115-.737.315-.247.612-.51.908-.773.267-.237.532-.474.815-.7.2853145-.2191771.4308971-.5747267.3812316-.9310641-.0496655-.3563373-.2869223-.6585276-.6212954-.7913341-.3343732-.1328066-.7143138-.0757552-.9949362.1493982z"/><path id="Shape" d="m39.741 41.858c-.3298437-.0821045-.6482623-.2047024-.948-.365-.288586-.1570792-.5626612-.3394613-.819-.545-.2806224-.2251534-.660563-.2822048-.9949362-.1493982-.3343731.1328065-.5716299.4349968-.6212954.7913341-.0496655.3563374.0959171.711887.3812316.9310641.3481846.2782047.7206851.5245303 1.113.736.4444405.2386593.9171567.4204215 1.407.541.0790655.0202355.1603867.0303166.242.03.5043358-.0015563.9285835-.3784253.9895747-.879062.0609913-.5006366-.2603643-.9683405-.7495747-1.090938z"/><path id="Shape" d="m32 40c.4215881-.0043957.842105.0432987 1.252.142.3299089.0818979.6483525.2045054.948.365.3157247.1748735.7011832.1660482 1.0085735-.0230921.3073904-.1891402.4890103-.5292437.4752185-.8898995-.0137917-.3606559-.2208548-.6858958-.541792-.8510084-.4447072-.2388438-.9177778-.4206131-1.408-.541-.5676236-.1376601-1.1499326-.2054954-1.734-.202-.5522847 0-1 .4477153-1 1s.4477153 1 1 1z"/><path id="Shape" d="m27.741 39.479c-.315.247-.612.51-.908.773-.267.237-.532.474-.814.7-.4170753.3457793-.4829413.960805-.1485471 1.3870627.3343941.4262578.9474176.5087026 1.3825471.1859373.315-.247.612-.51.908-.773.267-.237.532-.474.815-.7.2853145-.2191771.4308971-.5747267.3812316-.9310641-.0496655-.3563373-.2869223-.6585276-.6212954-.7913341-.3343732-.1328066-.7143138-.0757552-.9949362.1493982z"/><path id="Shape" d="m23 42c-.4219181.0043965-.8427659-.0432974-1.253-.142-.3295651-.0819766-.6476683-.2045823-.947-.365-.3157247-.1748735-.7011832-.1660482-1.0085735.0230921-.3073904.1891402-.4890103.5292437-.4752185.8898995.0137917.3606559.2208548.6858958.541792.8510084.4443917.2387657.9171216.4205332 1.407.541.5677676.1387503 1.1505425.2066007 1.735.202.5522847 0 1-.4477153 1-1s-.4477153-1-1-1z"/><path id="Shape" d="m17.142 38.743c-.4445902-.2383326-.9172644-.4200787-1.407-.541-.5679432-.1377706-1.1505967-.2056069-1.735-.202-.5522847 0-1 .4477153-1 1s.4477153 1 1 1c.4215912-.0044571.8421157.0432382 1.252.142.3299089.0818979.6483525.2045054.948.365.2890249.1573959.5637373.3397568.821.545.279993.2321302.6639419.2939385 1.0026385.1614052.3386967-.1325333.5787306-.4385084.626821-.7990189s-.1033463-.7187059-.3954595-.9353863c-.3486003-.2776332-.7210483-.5239241-1.113-.736z"/></g><path id="Shape" d="m43.448 20c3.2420905.02918 6.1812056-1.9013476 7.4421713-4.8883139 1.2609658-2.9869662.5944062-6.43965109-1.6878042-8.7425879-2.2822104-2.3029368-5.7287281-3.00068318-8.7269721-1.76677262-2.9982439 1.23391056-4.9552637 4.15545264-4.955395 7.39767442-.0144072 4.3961549 3.5318946 7.9746632 7.928 8zm0-14c2.4331127-.02919945 4.642931 1.41399496 5.5943453 3.65357097.9514144 2.23957603.4560045 4.83200263-1.2541729 6.56295133-1.7101773 1.7309488-4.2964345 2.2576184-6.5473328 1.3333095-2.2508982-.9243089-3.7206644-3.1165439-3.7208396-5.5498318-.0160752-3.2922749 2.6357709-5.97632973 5.928-6z" fill="#000"/><path id="Shape" d="m1.374 58.345c.89808955.927973 2.10213744 1.4989098 3.389 1.607.07660689.0261261.15626443.0422593.237.048h39c.3037783.000114.5911385-.1378631.781-.375l3.219-4.025 3.219 4.024c.1896629.2375116.4770531.375871.781.376h6c1.1045695 0 2-.8954305 2-2v-33c0-1.1045695-.8954305-2-2-2h-5.285c1.8239723-3.334349 2.7864206-7.0713982 2.8-10.872.0000001-4.28718714-2.287187-8.24871146-5.9999999-10.39230506-3.712813-2.14359359-8.2871872-2.14359359-12.0000002 0-3.7128129 2.1435936-6 6.10511792-5.9999999 10.39230506.0152929 3.8011343.9798195 7.5382453 2.806 10.872h-1.321c-.3147573 0-.6111456.1481942-.8.4l-2.2 2.933-2.2-2.933c-.1888544-.2518058-.4852427-.4-.8-.4h-12v-2c0-1.1045695-.8954305-2-2-2h-8c-1.32648927-.0013285-2.59903085.5250291-3.53700088 1.4629991-.93797002.93797-1.4643276 2.2105116-1.46299912 3.5370009v31c.00567459.0442076.01436146.0879761.026.131.03396306 1.2017003.5145735 2.3476068 1.348 3.214zm33.033-50.381c1.9440548-4.30021887 6.629827-6.65599146 11.2408952-5.65136149s7.8921418 5.09616783 7.8711048 9.81536149c-.0323223 4.0166976-1.2014238 7.9421327-3.372 11.322-.057.1-.119.192-.181.285l-.066.1c-1.7329227 2.6431599-3.8886812 4.9833792-6.381 6.927-2.4949841-1.9456798-4.652809-4.2886446-6.387-6.935l-.061-.09c-.062-.093-.124-.185-.2-.314-2.1604398-3.3727342-3.3228493-7.2877626-3.353-11.293-.0056541-1.4363305.2975282-2.85709267.889-4.166zm5.157 21.983c1.0484894 1.0571022 2.1860209 2.0219966 3.4 2.884.3371795.2264307.7778205.2264307 1.115 0 1.207173-.8575686 2.3377379-1.818164 3.379-2.871.837393.3609895 1.4231286 1.1358927 1.542 2.04 0 1.419-2.259 3-5.5 3s-5.5-1.581-5.5-3c.1253151-.9112195.7187682-1.6902216 1.564-2.053zm-10.364-1.347c.1888544.2518058.4852427.4.8.4s.6111456-.1481942.8-.4l2.7-3.6h2.013c.7983083 1.2204931 1.6857252 2.3803185 2.655 3.47-1.2710815.7364204-2.0859973 2.0632898-2.168 3.53 0 2.8 3.294 5 7.5 5s7.5-2.2 7.5-5c-.0768442-1.4598878-.8844933-2.7826577-2.148-3.518.9733432-1.0948173 1.8663334-2.2585119 2.672-3.482h6.476v33h-5.52l-3.7-4.625c-.1967485-.2257433-.4815505-.3553128-.781-.3553128s-.5842515.1295695-.781.3553128l-3.698 4.625h-22.52v-3c0-.5522847-.4477153-1-1-1s-1 .4477153-1 1v3h-13.774c-.90737817-.0046685-1.77380411-.3783146-2.4-1.035-.55495626-.5586424-.85395199-1.3220588-.826-2.109.07339533-1.6019673 1.39636149-2.861431 3-2.856h8c1.1045695 0 2-.8954305 2-2v-25h11.5zm-26.328-6.718c.56482067-.5637895 1.32995252-.8809165 2.128-.882h1v3c0 .5522847.44771525 1 1 1s1-.4477153 1-1v-3h5v29h-3v-3c0-.5522847-.44771525-1-1-1s-1 .4477153-1 1v3h-3c-1.08510922.0058134-2.13858739.3661029-3 1.026v-27.026c.00019486-.7933272.31357688-1.5545005.872-2.118z" fill="#000"/></g></g></svg>