<svg id="Layer_1" enable-background="new 0 0 256 256" height="512" viewBox="0 0 256 256" width="512" xmlns="http://www.w3.org/2000/svg"><path d="m69.903 147.903h116.193v3.918c0 31.81-25.787 57.596-57.596 57.596h-1c-31.81 0-57.596-25.787-57.596-57.596v-3.918z" fill="#a4c9ff"/><path d="m128.5 211.417h-1c-32.861 0-59.597-26.735-59.597-59.596v-3.917c0-1.104.896-2 2-2h116.193c1.104 0 2 .896 2 2v3.917c.001 32.861-26.735 59.596-59.596 59.596zm-56.597-61.514v1.917c0 30.656 24.94 55.596 55.597 55.596h1c30.656 0 55.597-24.94 55.597-55.596v-1.917z" fill="#3762cc"/><circle cx="128" cy="190.962" fill="#ffea92" r="12.986"/><ellipse cx="173.11" cy="185.495" fill="#ffea92" rx="12.986" ry="10.252" transform="matrix(.545 -.839 .839 .545 -76.759 229.551)"/><ellipse cx="82.89" cy="185.495" fill="#ffea92" rx="10.252" ry="12.986" transform="matrix(.839 -.545 .545 .839 -87.698 75.138)"/><ellipse cx="128" cy="136.676" fill="#4671c6" rx="114.143" ry="33.491"/><path d="m128 172.167c-30.674 0-59.537-3.512-81.274-9.89-22.485-6.597-34.868-15.689-34.868-25.601s12.383-19.003 34.868-25.601c21.737-6.378 50.601-9.89 81.274-9.89s59.537 3.512 81.274 9.89c22.485 6.598 34.868 15.689 34.868 25.601s-12.383 19.003-34.868 25.601c-21.737 6.377-50.6 9.89-81.274 9.89zm0-66.982c-67.081 0-112.143 16.283-112.143 31.491s45.062 31.491 112.143 31.491 112.143-16.283 112.143-31.491-45.062-31.491-112.143-31.491z" fill="#3762cc"/><path d="m197.046 110.675h-138.092c0-35.397 28.695-64.092 64.092-64.092h9.908c35.397 0 64.092 28.695 64.092 64.092z" fill="#e0ebfc"/><path d="m241.485 143.312h-226.97c-3.665 0-6.637-2.971-6.637-6.637 0-3.665 2.971-6.637 6.637-6.637h226.971c3.665 0 6.637 2.971 6.637 6.637-.001 3.666-2.972 6.637-6.638 6.637z" fill="#6bdddd"/><path d="m150.549 110.675h-45.099v-22.549c0-12.454 10.096-22.549 22.549-22.549 12.454 0 22.549 10.096 22.549 22.549v22.549z" fill="#6bdddd"/><ellipse cx="128" cy="86.965" fill="#e0ebfc" rx="12.917" ry="10.705"/><path d="m134.958 56.818c0-3.837-3.121-6.958-6.958-6.958s-6.958 3.122-6.958 6.958c0 2.955 1.854 5.479 4.458 6.486v6.519h5v-6.519c2.604-1.007 4.458-3.531 4.458-6.486zm-6.958 3.127c-1.725 0-3.127-1.403-3.127-3.127s1.402-3.127 3.127-3.127 3.127 1.403 3.127 3.127-1.402 3.127-3.127 3.127z" fill="#6bdddd"/><circle cx="128" cy="86.965" fill="#4671c6" r="7.432"/><circle cx="130.123" cy="85.196" fill="#a4c9ff" r="3.185"/><g fill="#3762cc"><path d="m128 106.04c-5.524 0-9.853-2.69-9.853-6.124 0-.829.672-1.5 1.5-1.5s1.5.671 1.5 1.5c0 1.475 2.931 3.124 6.853 3.124s6.853-1.649 6.853-3.124c0-.829.672-1.5 1.5-1.5s1.5.671 1.5 1.5c0 3.434-4.329 6.124-9.853 6.124z"/><path d="m197.046 112.675h-138.092c-1.104 0-2-.896-2-2 0-36.443 29.648-66.092 66.092-66.092h9.908c36.443 0 66.092 29.648 66.092 66.092 0 1.105-.896 2-2 2zm-136.06-4h134.027c-1.059-33.316-28.491-60.092-62.06-60.092h-9.908c-33.567 0-61 26.776-62.059 60.092z"/><path d="m241.485 145.312h-226.97c-4.763 0-8.637-3.874-8.637-8.636s3.874-8.637 8.637-8.637h226.971c4.763 0 8.637 3.875 8.637 8.637s-3.875 8.636-8.638 8.636zm-226.97-13.273c-2.557 0-4.637 2.08-4.637 4.637s2.08 4.636 4.637 4.636h226.971c2.557 0 4.637-2.08 4.637-4.636s-2.08-4.637-4.637-4.637z"/><path d="m128 205.949c-8.264 0-14.986-6.723-14.986-14.986s6.723-14.986 14.986-14.986 14.986 6.723 14.986 14.986-6.722 14.986-14.986 14.986zm0-25.973c-6.058 0-10.986 4.928-10.986 10.986s4.929 10.986 10.986 10.986 10.986-4.928 10.986-10.986-4.928-10.986-10.986-10.986z"/><path d="m170.717 199.742c-2.083 0-4.056-.565-5.773-1.682-2.82-1.833-4.563-4.898-4.907-8.633-.328-3.558.666-7.325 2.801-10.609 4.503-6.928 12.777-9.568 18.44-5.889 2.82 1.833 4.563 4.899 4.907 8.634.328 3.558-.667 7.326-2.802 10.609-2.134 3.284-5.173 5.723-8.558 6.868-1.388.469-2.771.702-4.108.702zm4.753-24.497c-3.277 0-6.916 2.117-9.279 5.753-1.646 2.533-2.417 5.396-2.172 8.062.229 2.489 1.332 4.495 3.104 5.646 1.771 1.152 4.051 1.346 6.42.544 2.536-.858 4.84-2.725 6.486-5.258 1.646-2.532 2.418-5.396 2.172-8.062-.229-2.49-1.332-4.495-3.104-5.647-1.083-.704-2.327-1.038-3.627-1.038z"/><path d="m85.283 199.742c-1.337 0-2.72-.233-4.108-.703-3.385-1.145-6.424-3.584-8.558-6.868-2.135-3.283-3.13-7.051-2.802-10.609.345-3.734 2.087-6.8 4.907-8.633 5.667-3.681 13.938-1.04 18.44 5.888 2.135 3.285 3.129 7.052 2.801 10.61-.344 3.734-2.087 6.8-4.907 8.633-1.717 1.116-3.69 1.682-5.773 1.682zm-4.752-24.497c-1.301 0-2.545.333-3.629 1.038-1.771 1.151-2.874 3.157-3.104 5.646-.246 2.666.525 5.529 2.172 8.062 1.646 2.533 3.95 4.4 6.486 5.258 2.37.802 4.648.608 6.42-.544s2.875-3.157 3.104-5.646c.245-2.666-.525-5.529-2.172-8.063-2.362-3.634-6-5.751-9.277-5.751z"/></g></svg>