<?xml version="1.0" encoding="iso-8859-1"?>
<!-- Generator: Adobe Illustrator 19.0.0, SVG Export Plug-In . SVG Version: 6.00 Build 0)  -->
<svg version="1.1" id="Capa_1" xmlns="http://www.w3.org/2000/svg" xmlns:xlink="http://www.w3.org/1999/xlink" x="0px" y="0px"
	 viewBox="0 0 512 512" style="enable-background:new 0 0 512 512;" xml:space="preserve">
<rect x="7.5" y="7.5" style="fill:#BD6953;" width="497" height="30"/>
<rect x="474.5" y="7.5" style="fill:#AD5F4E;" width="30" height="30"/>
<rect x="7.5" y="474.5" style="fill:#BD6953;" width="497" height="30"/>
<rect x="474.5" y="474.5" style="fill:#AD5F4E;" width="30" height="30"/>
<path style="fill:#FBD560;" d="M295.33,272.99c-1.19,1.19-1.74,2.9-1.46,4.58l6.64,39.37c0.72,4.22-3.63,7.45-7.35,5.46l-34.8-18.61
	c-0.74-0.39-1.55-0.59-2.36-0.59s-1.62,0.2-2.36,0.59l-34.8,18.61c-3.72,1.99-8.07-1.24-7.35-5.46l6.64-39.37
	c0.28-1.68-0.27-3.39-1.46-4.58l-28.13-27.88c-3.02-2.99-1.35-8.2,2.81-8.82l38.89-5.74c1.65-0.25,3.08-1.3,3.81-2.83l17.4-35.84
	c0.93-1.92,2.74-2.88,4.55-2.88s3.62,0.96,4.55,2.88l17.4,35.84c0.73,1.53,2.16,2.58,3.81,2.83l38.89,5.74
	c4.16,0.62,5.83,5.83,2.81,8.82L295.33,272.99z"/>
<path style="fill:#FFB729;" d="M295.33,272.99c-1.19,1.19-1.74,2.9-1.46,4.58l6.64,39.37c0.72,4.22-3.63,7.45-7.35,5.46l-34.8-18.61
	c-0.74-0.39-1.55-0.59-2.36-0.59V189c1.81,0,3.62,0.96,4.55,2.88l17.4,35.84c0.73,1.53,2.16,2.58,3.81,2.83l38.89,5.74
	c4.16,0.62,5.83,5.83,2.81,8.82L295.33,272.99z"/>
<path style="fill:#FF444A;" d="M7.5,37.5v437h83.044c0,0-1.544-67-33.044-110.167v-30c0,0,122.833-84.667,122.833-296.833H7.5z"/>
<path style="fill:#EA3D4A;" d="M57.5,334.333c0,0,122.833-84.667,122.833-296.833h-30c0,212.167-122.833,296.833-122.833,296.833v30
	C59,407.5,60.544,474.5,60.544,474.5h30c0,0-1.544-67-33.044-110.167V334.333z"/>
<rect x="7.5" y="334.33" style="fill:#51E3F0;" width="50" height="30"/>
<path style="fill:#FF444A;" d="M504.5,37.5v437h-83.044c0,0,1.544-67,33.044-110.167v-30c0,0-122.833-84.667-122.833-296.833H504.5z
	"/>
<path style="fill:#EA3D4A;" d="M474.5,37.5v436.75h-53.037c-0.005,0.16-0.007,0.25-0.007,0.25H504.5v-437H474.5z"/>
<rect x="454.5" y="334.33" style="fill:#51E3F0;" width="50" height="30"/>
<rect x="474.5" y="334.33" style="fill:#49B9DB;" width="30" height="30"/>
<path d="M0,504.5c0,4.143,3.357,7.5,7.5,7.5h497c4.143,0,7.5-3.357,7.5-7.5l0,0l0,0l0,0V7.5l0,0c0-4.143-3.357-7.5-7.5-7.5H7.5
	C3.357,0,0,3.357,0,7.5l0,0V504.5 M462,356.833v-15h35v15H462z M399.39,261.419c-17.455-27.106-31.369-57.46-41.355-90.218
	C346.173,132.297,339.852,89.876,339.22,45h22.135c-0.062,24.749,2.954,103.392,40,183.159c1.27,2.734,3.978,4.343,6.807,4.343
	c1.058,0,2.132-0.225,3.154-0.7c3.757-1.744,5.388-6.204,3.643-9.961C379.543,145.584,376.45,68.401,376.395,45H497v281.833h-14.476
	c-4.796-4.739-17.313-17.759-29.812-36.195c-2.324-3.43-6.988-4.325-10.416-2c-3.429,2.324-4.324,6.988-2,10.416
	c7.756,11.441,15.472,20.872,21.604,27.779h-4.937C450.147,321.64,424.79,300.864,399.39,261.419z M15,15h482v15H331.667H180.333H15
	V15z M50,341.833v15H15v-15H50z M82.579,467H15v-95.167h12.26c3.04,8.444,9.203,26.211,12.204,39.488
	c0.788,3.483,3.881,5.848,7.309,5.848c0.548,0,1.104-0.061,1.661-0.187c4.04-0.914,6.574-4.93,5.661-8.97
	c-2.679-11.847-7.54-26.549-10.912-36.18h10.423C75.441,404.07,81.141,449.178,82.579,467z M497,497H15v-15h75.544H127.5
	c4.143,0,7.5-3.357,7.5-7.5s-3.357-7.5-7.5-7.5H97.655C96.31,448.331,90.411,398.286,65,361.931v-23.83
	c7.202-5.58,25.409-20.949,45.781-47.877c42.782-56.551,61.158-119.317,69.04-162.015c0.752-4.073-1.94-7.984-6.014-8.736
	c-4.066-0.753-7.984,1.939-8.736,6.014c-13.684,74.12-43.345,125.261-65.817,155.111c-20.326,26.998-38.593,41.933-44.224,46.235
	H50.1c6.133-6.908,13.848-16.338,21.604-27.779c2.324-3.428,1.429-8.092-2-10.416c-3.429-2.325-8.093-1.43-10.416,2
	c-12.453,18.369-25.01,31.44-29.816,36.195H15V45h120.605c-0.054,23.401-3.148,100.584-38.564,176.841
	c-1.745,3.757-0.114,8.217,3.643,9.961c1.022,0.476,2.097,0.7,3.154,0.7c2.829,0,5.537-1.608,6.807-4.343
	c37.047-79.767,40.062-158.41,40-183.159h22.135c-0.243,17.181-1.32,34.113-3.211,50.434c-0.477,4.114,2.473,7.837,6.587,8.313
	c4.092,0.476,7.837-2.472,8.313-6.587c1.957-16.889,3.067-34.401,3.311-52.16h136.45c0.636,46.364,7.166,90.261,19.456,130.575
	c10.39,34.081,24.889,65.695,43.092,93.965c25.72,39.939,51.328,61.682,60.223,68.564v23.826c-10,14.31-17.995,32.233-23.779,53.322
	c-1.096,3.995,1.254,8.121,5.248,9.217c3.998,1.1,8.122-1.255,9.217-5.248c5.153-18.785,12.118-34.7,20.717-47.389h10.414
	c-3.371,9.631-8.233,24.333-10.912,36.18c-0.913,4.04,1.621,8.056,5.661,8.97c0.557,0.126,1.113,0.187,1.661,0.187
	c3.427,0,6.521-2.364,7.309-5.848c3.002-13.277,9.165-31.044,12.204-39.488H497V467h-67.592c0.357-4.529,0.988-10.812,2.089-18.166
	c0.612-4.097-2.212-7.914-6.309-8.526c-4.098-0.621-7.915,2.211-8.526,6.308c-1.262,8.44-1.94,15.499-2.302,20.385H160
	c-4.143,0-7.5,3.357-7.5,7.5s3.357,7.5,7.5,7.5h261.456H497V497z"/>
<path d="M210.538,277.477l-6.447,38.22c-0.813,4.826,1.138,9.592,5.093,12.437c2.186,1.571,4.731,2.368,7.294,2.368
	c2.014,0,4.038-0.493,5.903-1.49L256,311.038l33.619,17.973c4.236,2.266,9.293,1.928,13.197-0.878
	c3.955-2.845,5.906-7.61,5.093-12.437l-6.447-38.22l27.278-27.037c3.438-3.409,4.633-8.396,3.117-13.013
	c-1.503-4.577-5.378-7.854-10.112-8.555l-37.602-5.555l-16.849-34.714c-2.126-4.382-6.454-7.104-11.295-7.104
	s-9.169,2.722-11.295,7.104l-16.849,34.714l-37.601,5.555c-4.735,0.7-8.61,3.978-10.113,8.555
	c-1.516,4.617-0.321,9.604,3.119,13.015L210.538,277.477z M231.332,237.966c4.108-0.606,7.648-3.213,9.47-6.969L256,199.685
	l15.197,31.311c1.822,3.758,5.362,6.364,9.471,6.972l34.244,5.059l-24.854,24.636c-2.931,2.902-4.27,7.073-3.581,11.157
	l5.841,34.626l-30.425-16.265c-1.845-0.986-3.868-1.479-5.893-1.479c-2.023,0-4.048,0.493-5.894,1.479l-30.424,16.265l5.841-34.626
	c0.688-4.084-0.65-8.255-3.579-11.155l-24.856-24.638L231.332,237.966z"/>
<g>
</g>
<g>
</g>
<g>
</g>
<g>
</g>
<g>
</g>
<g>
</g>
<g>
</g>
<g>
</g>
<g>
</g>
<g>
</g>
<g>
</g>
<g>
</g>
<g>
</g>
<g>
</g>
<g>
</g>
</svg>
