<svg id="Capa_1" enable-background="new 0 0 512 512" height="512" viewBox="0 0 512 512" width="512" xmlns="http://www.w3.org/2000/svg"><g><path d="m466 0h-75l-30 30h-210l-30-30h-75c-8.401 0-15 6.599-15 15v482c0 8.399 6.599 15 15 15h75l30-30h210l30 30h75c8.401 0 15-6.601 15-15v-482c0-8.401-6.599-15-15-15zm-375 482h-30v-31h30zm0-61h-30v-30h30zm0-60h-30v-30h30zm0-60h-30v-30h30zm0-60h-30v-30h30zm0-60h-30v-30h30zm0-60h-30v-30h30zm0-60h-30v-31h30zm360 421h-30v-31h30zm0-61h-30v-30h30zm0-60h-30v-30h30zm0-60h-30v-30h30zm0-60h-30v-30h30zm0-60h-30v-30h30zm0-60h-30v-30h30zm0-60h-30v-31h30z" fill="#735c5c"/><path d="m466 0h-75l-30 30h-105v452h105l30 30h75c8.401 0 15-6.601 15-15v-482c0-8.401-6.599-15-15-15zm-15 482h-30v-31h30zm0-61h-30v-30h30zm0-60h-30v-30h30zm0-60h-30v-30h30zm0-60h-30v-30h30zm0-60h-30v-30h30zm0-60h-30v-30h30zm0-60h-30v-31h30z" fill="#594848"/><path d="m121 271h270v241h-270z" fill="#ffbe40"/><path d="m121 0h270v241h-270z" fill="#ff8c9f"/><path d="m256 0h135v241h-135z" fill="#f255a3"/><path d="m256 271h135v241h-135z" fill="#ff9f40"/><g><path d="m322.475 360.604-90-43.125c-4.629-2.271-10.107-1.904-14.473.82-4.365 2.754-7.002 7.544-7.002 12.7v90c0 5.244 2.725 10.107 7.207 12.817 4.525 2.73 10.074 2.908 14.736.483l90-46.875c5.039-2.622 8.145-7.866 8.057-13.55s-3.398-10.823-8.525-13.27z" fill="#f3f5f9"/><path d="m331 373.876c-.088-5.684-3.398-10.825-8.525-13.271l-66.475-31.854v93.541l66.943-34.867c5.039-2.621 8.145-7.865 8.057-13.549z" fill="#e1e6f0"/></g><path d="m286 76.015c-12.92 0-22.793 4.863-30 11.265-7.178-6.401-17.08-11.265-30-11.265-25.225 0-45 18.955-45 43.169 0 25.503 21.211 40.986 50.566 62.432l15.439 11.396c2.666 2.007 5.83 3.003 8.994 3.003s6.328-.996 8.994-3.003l15.38-11.323c29.387-21.475 50.627-36.988 50.627-62.505 0-24.214-19.775-43.169-45-43.169z" fill="#f3f5f9"/><path d="m280.374 181.688c29.386-21.474 50.626-36.987 50.626-62.504 0-24.214-19.775-43.169-45-43.169-12.92 0-22.793 4.863-30 11.265v108.735c3.164 0 6.328-.996 8.994-3.003z" fill="#e1e6f0"/></g></svg>